<svg version="1.2" xmlns="http://www.w3.org/2000/svg" viewBox="0 0 800 800" width="800" height="800"><symbol id="icon" viewBox="0 0 800 800"><path  d="m736 0.1h-667.5c-8.6-0.4-17.2 0.9-25.3 3.8-8.1 2.9-15.6 7.4-21.9 13.2-6.4 5.8-11.5 12.8-15.2 20.6-3.6 7.8-5.7 16.3-6.1 24.9v668.9c0.2 8.9 2.2 17.7 5.7 25.9 3.6 8.2 8.6 15.7 14.9 22 6.3 6.3 13.8 11.3 22 14.9 8.2 3.5 17 5.5 25.9 5.7h667.5c8.7-0.4 17.2-2.5 25-6.1 7.9-3.6 15-8.7 21-15.1 5.9-6.3 10.5-13.8 13.6-21.9 3.1-8.1 4.6-16.7 4.4-25.4v-668.9c0.1-8.4-1.4-16.7-4.6-24.5-3.2-7.7-7.9-14.7-13.9-20.6-6-5.8-13.2-10.4-21-13.4-7.8-3-16.1-4.4-24.5-4zm-486 666.9h-116.5v-356.5h116.5zm-55.5-410.4c-8.1 0.3-16.2-1.1-23.8-4.1-7.6-3-14.4-7.6-20.1-13.3-5.8-5.8-10.2-12.7-13.2-20.3-2.9-7.6-4.3-15.7-3.9-23.8-0.4-8.2 1-16.4 4-24.1 3-7.6 7.6-14.6 13.4-20.4 5.8-5.8 12.8-10.3 20.5-13.2 7.7-2.9 15.9-4.2 24.1-3.8 8.1-0.3 16.2 1.1 23.8 4.1 7.5 3 14.4 7.5 20.1 13.3 5.8 5.8 10.2 12.7 13.2 20.3 2.9 7.5 4.2 15.7 3.9 23.8 0.4 8.2-1 16.4-4 24.1-3 7.6-7.6 14.6-13.4 20.3-5.8 5.8-12.8 10.3-20.5 13.3-7.7 2.9-15.9 4.2-24.1 3.8zm472.5 410.4h-117v-194.9c0-46.5-16.5-78.5-58-78.5-6.4 0-12.8 1.1-18.9 3.1-6.1 1.9-11.8 4.9-17 8.6-5.2 3.7-9.8 8.2-13.7 13.4-3.8 5.1-6.8 10.8-8.9 16.9q-1.2 3.4-2.1 6.9-0.9 3.5-1.4 7.1-0.5 3.6-0.6 7.2-0.2 3.6 0.1 7.3v202.9h-115v-356.4h115v50c5.1-9.4 11.4-18 18.9-25.6 7.4-7.6 15.8-14.2 25.1-19.5 9.2-5.3 19.1-9.3 29.4-11.9 10.3-2.6 20.9-3.8 31.6-3.5 75.5 0 132.5 50 132.5 156.5z"/></symbol></svg>