<svg version="1.2" xmlns="http://www.w3.org/2000/svg" viewBox="0 0 800 800" width="800" height="800"><symbol id="icon" viewBox="0 0 800 800"><path  d="m800 397.5c-1.9-156.6-93.9-297.9-235.9-362.1-141.9-64.2-308-39.8-425.8 62.6-117.7 102.5-165.7 264.3-123 414.9 42.8 150.6 168.4 262.6 322.2 287.1v-285.3h-100v-117.2h100v-89c-2.3-20.7-0.1-41.7 6.5-61.5 6.6-19.7 17.5-37.7 31.8-52.8 14.3-15.1 31.7-26.8 51-34.3 19.3-7.6 40-10.8 60.7-9.4q45 0.6 89.5 8v100.7h-50c-8.6-1.1-17.4-0.3-25.6 2.5-8.3 2.8-15.8 7.4-22 13.5-6.3 6-11.1 13.5-14.1 21.7-3 8.2-4.1 16.9-3.3 25.6v76h111l-18 117.2h-92.5v281.8c46.9-7.5 92-23.3 133.4-46.7 41.4-23.3 78.3-54 109-90.4 30.7-36.4 54.8-78 71-122.8 16.2-44.9 24.4-92.3 24.1-140.1z"/></symbol></svg>