<svg xmlns="http://www.w3.org/2000/svg" viewBox="0 0 24 24">
  <defs>
    <symbol id="icon" viewBox="3 2 18 20" fill="none">
      <path d="M7 10.029C7.471 10 8.053 10 8.8 10h6.4c0.747 0 1.329 0 1.8 0.029m-10 0c-0.588 0.036 -1.006 0.117 -1.362 0.298a3 3 0 0 0 -1.311 1.311C4 12.28 4 13.12 4 14.8v1.4c0 1.68 0 2.52 0.327 3.162a3 3 0 0 0 1.311 1.311C6.28 21 7.12 21 8.8 21h6.4c1.68 0 2.52 0 3.162 -0.327a3 3 0 0 0 1.311 -1.311C20 18.72 20 17.88 20 16.2v-1.4c0 -1.68 0 -2.52 -0.327 -3.162a3 3 0 0 0 -1.311 -1.311c-0.356 -0.181 -0.774 -0.262 -1.362 -0.298m-10 0V8a5 5 0 0 1 10 0v2.029" stroke="currentColor" stroke-width="2" stroke-linecap="round" stroke-linejoin="round"/>
    </symbol>
  </defs>
</svg>